<svg width="234" height="36" viewBox="0 0 234 36" fill="none" xmlns="http://www.w3.org/2000/svg">
<g clip-path="url(#clip0_12_3269)">
<path d="M120.697 27.7185C115.615 27.7185 110.771 25.2629 107.05 20.8057C104.124 17.1941 102.138 12.9148 101.268 8.34914C101.223 8.12803 101.228 7.89967 101.281 7.68051C101.335 7.46134 101.437 7.25684 101.579 7.08175C101.722 6.90665 101.901 6.76532 102.105 6.66794C102.308 6.57056 102.531 6.51955 102.756 6.5186H138.63C138.858 6.51247 139.084 6.55878 139.292 6.65395C139.499 6.74911 139.681 6.8906 139.825 7.06748C139.969 7.24437 140.07 7.45193 140.121 7.67415C140.172 7.89636 140.171 8.1273 140.119 8.34914C139.251 12.9142 137.267 17.1936 134.344 20.8057C130.579 25.2629 125.735 27.7185 120.697 27.7185Z" fill="white"/>
<path d="M145.32 1.24286C144.966 0.853345 144.536 0.541694 144.055 0.327744C143.575 0.113795 143.055 0.00223675 142.529 0.000183105H98.7826C98.2568 0.00269073 97.7373 0.114448 97.2569 0.328369C96.7765 0.542289 96.3459 0.853703 95.9922 1.24286C95.1838 2.12794 94.7446 3.28868 94.7644 4.48721C92.6438 4.86175 90.7142 5.94824 89.2943 7.56732C87.8744 9.18641 87.0491 11.2413 86.9546 13.3927C86.86 15.5441 87.502 17.6634 88.7744 19.4008C90.0468 21.1382 91.8737 22.3897 93.9533 22.9488C94.9372 23.2368 95.9568 23.3846 96.9819 23.3878C98.2497 23.376 99.5068 23.1548 100.702 22.733C101.347 23.6868 102.045 24.6035 102.793 25.4788C105.278 28.4218 108.393 30.7668 111.909 32.3395H105.524C105.053 32.3395 104.6 32.5269 104.267 32.8604C103.933 33.194 103.746 33.6463 103.746 34.118C103.746 34.5896 103.933 35.042 104.267 35.3755C104.6 35.709 105.053 35.8964 105.524 35.8964H135.81C136.282 35.8964 136.734 35.709 137.068 35.3755C137.401 35.042 137.588 34.5896 137.588 34.118C137.588 33.6463 137.401 33.194 137.068 32.8604C136.734 32.5269 136.282 32.3395 135.81 32.3395H129.336C132.848 30.7645 135.961 28.4197 138.444 25.4788C143.139 20.0318 145.997 12.6799 146.503 4.77742C146.558 4.13867 146.481 3.49545 146.278 2.8875C146.074 2.27955 145.748 1.7198 145.32 1.24286ZM94.8835 19.5184C93.606 19.177 92.48 18.4169 91.6857 17.3599C90.8913 16.3028 90.4745 15.0098 90.502 13.6878C90.5294 12.3659 90.9995 11.0913 91.837 10.0681C92.6745 9.04488 93.8311 8.3322 95.1216 8.04409C95.7081 12.0721 96.9657 15.9732 98.8422 19.5854C97.5408 19.9209 96.1728 19.8978 94.8835 19.5184ZM120.697 29.7277C109.535 29.7277 100.152 18.6403 99.244 4.49465H142.142C141.577 18.1641 131.777 29.7277 120.697 29.7277Z" fill="#4E3D33"/>
<path d="M102.92 13.93C103.923 16.4183 105.304 18.7374 107.013 20.8056C110.733 25.2703 115.577 27.7185 120.66 27.7185C125.742 27.7185 130.579 25.2629 134.307 20.8056C136.011 18.7353 137.389 16.4166 138.392 13.93H102.92Z" fill="#4E3D33"/>
<path opacity="0.8" d="M207.193 27.7185C202.118 27.7185 197.274 25.2629 193.553 20.8057C190.625 17.196 188.638 12.9158 187.772 8.34914C187.719 8.1273 187.718 7.89636 187.769 7.67415C187.82 7.45193 187.921 7.24437 188.065 7.06748C188.209 6.8906 188.391 6.74911 188.599 6.65395C188.806 6.55878 189.032 6.51247 189.26 6.5186H225.134C225.362 6.51247 225.588 6.55878 225.795 6.65395C226.002 6.74911 226.185 6.8906 226.329 7.06748C226.472 7.24437 226.574 7.45193 226.625 7.67415C226.675 7.89636 226.675 8.1273 226.622 8.34914C225.752 12.9148 223.766 17.1941 220.84 20.8057C217.12 25.2629 212.275 27.7185 207.193 27.7185Z" fill="white"/>
<path d="M207.193 27.7185C202.118 27.7185 197.274 25.2629 193.553 20.8057C190.625 17.196 188.638 12.9158 187.772 8.34914C187.719 8.1273 187.718 7.89636 187.769 7.67415C187.82 7.45193 187.921 7.24437 188.065 7.06748C188.209 6.8906 188.391 6.74911 188.599 6.65395C188.806 6.55878 189.032 6.51247 189.26 6.5186H225.134C225.362 6.51247 225.588 6.55878 225.795 6.65395C226.002 6.74911 226.185 6.8906 226.329 7.06748C226.472 7.24437 226.574 7.45193 226.625 7.67415C226.675 7.89636 226.675 8.1273 226.622 8.34914C225.752 12.9148 223.766 17.1941 220.84 20.8057C217.12 25.2629 212.275 27.7185 207.193 27.7185Z" fill="white"/>
<path d="M231.861 1.24286C231.507 0.853703 231.076 0.542289 230.596 0.328369C230.116 0.114448 229.596 0.00269073 229.07 0.000183105H185.323C184.798 0.00269073 184.278 0.114448 183.798 0.328369C183.317 0.542289 182.887 0.853703 182.533 1.24286C181.721 2.12591 181.282 3.28802 181.305 4.48721C179.185 4.86175 177.255 5.94824 175.835 7.56732C174.415 9.18641 173.59 11.2413 173.495 13.3927C173.401 15.5441 174.043 17.6634 175.315 19.4008C176.588 21.1382 178.414 22.3897 180.494 22.9488C181.478 23.2382 182.497 23.386 183.523 23.3878C184.803 23.3801 186.073 23.1588 187.28 22.733C187.923 23.6885 188.621 24.6054 189.371 25.4788C191.855 28.4197 194.967 30.7645 198.479 32.3395H192.132C191.66 32.3395 191.208 32.5269 190.875 32.8604C190.541 33.194 190.354 33.6463 190.354 34.118C190.354 34.5896 190.541 35.042 190.875 35.3755C191.208 35.709 191.66 35.8964 192.132 35.8964H222.425C222.897 35.8964 223.349 35.709 223.683 35.3755C224.016 35.042 224.204 34.5896 224.204 34.118C224.204 33.6463 224.016 33.194 223.683 32.8604C223.349 32.5269 222.897 32.3395 222.425 32.3395H215.944C219.456 30.7645 222.569 28.4197 225.052 25.4788C229.74 20.0318 232.605 12.6799 233.111 4.77742C233.157 4.13395 233.069 3.48792 232.854 2.87973C232.639 2.27154 232.301 1.71429 231.861 1.24286ZM181.424 19.5184C180.147 19.177 179.021 18.4169 178.226 17.3599C177.432 16.3028 177.015 15.0098 177.043 13.6878C177.07 12.3659 177.54 11.0913 178.378 10.0681C179.215 9.04488 180.372 8.3322 181.662 8.04409C182.245 12.0729 183.503 15.9746 185.383 19.5854C184.082 19.9209 182.714 19.8978 181.424 19.5184ZM207.193 29.7277C196.076 29.7277 186.655 18.6403 185.748 4.49465H228.646C228.118 18.1641 218.318 29.7277 207.193 29.7277Z" fill="#4E3D33"/>
<path d="M191.5 17.9483C192.116 18.948 192.802 19.9029 193.553 20.8057C197.274 25.2704 202.118 27.7185 207.193 27.7185C212.268 27.7185 217.119 25.2629 220.84 20.8057C221.591 19.9029 222.278 18.948 222.894 17.9483H191.5Z" fill="#4E3D33"/>
<path d="M191.5 17.9483H222.894C224.287 15.6728 225.354 13.2131 226.064 10.6411H188.33C189.039 13.2131 190.106 15.6728 191.5 17.9483Z" fill="#FFE6CF"/>
<path d="M58.7864 1.24286C58.4327 0.853703 58.002 0.542289 57.5217 0.328369C57.0413 0.114448 56.5217 0.00269073 55.9959 0.000183105H12.2418C11.716 0.00269073 11.1964 0.114448 10.716 0.328369C10.2357 0.542289 9.805 0.853703 9.45136 1.24286C8.64501 2.12868 8.20834 3.28957 8.23099 4.48721C6.11002 4.86075 4.17985 5.94642 2.75916 7.56497C1.33847 9.18353 0.512217 11.2382 0.416826 13.3897C0.321435 15.5412 0.9626 17.6609 2.23447 19.3988C3.50635 21.1368 5.33289 22.389 7.41248 22.9488C8.39877 23.2373 9.42085 23.3851 10.4485 23.3878C11.7163 23.3767 12.9736 23.1554 14.1691 22.733C14.8139 23.6868 15.512 24.6035 16.26 25.4788C18.7458 28.4201 21.8611 30.7648 25.3755 32.3395H18.991C18.5193 32.3395 18.0669 32.5269 17.7334 32.8604C17.3999 33.194 17.2125 33.6463 17.2125 34.118C17.2125 34.5896 17.3999 35.042 17.7334 35.3755C18.0669 35.709 18.5193 35.8964 18.991 35.8964H49.284C49.7556 35.8964 50.208 35.709 50.5415 35.3755C50.875 35.042 51.0624 34.5896 51.0624 34.118C51.0624 33.6463 50.875 33.194 50.5415 32.8604C50.208 32.5269 49.7556 32.3395 49.284 32.3395H42.8027C46.3159 30.7665 49.4292 28.4214 51.9107 25.4788C56.6061 20.0318 59.4709 12.6799 59.9769 4.77742C60.0274 4.1384 59.9479 3.49579 59.7433 2.88833C59.5387 2.28086 59.2131 1.72112 58.7864 1.24286ZM8.33518 19.5184C7.06301 19.1706 5.94353 18.4078 5.15456 17.3509C4.36559 16.2941 3.95239 15.004 3.98061 13.6854C4.00883 12.3669 4.47684 11.0956 5.31029 10.0735C6.14375 9.05137 7.29484 8.33709 8.58073 8.04409C9.16348 12.0729 10.4213 15.9747 12.3013 19.5854C10.9976 19.9223 9.62682 19.8992 8.33518 19.5184ZM34.1114 29.7277C22.9943 29.7277 13.5738 18.6403 12.666 4.49465H55.5569C55.036 18.1641 45.236 29.7277 34.1189 29.7277H34.1114Z" fill="#4E3D33"/>
<path d="M18.4179 17.9483C19.0342 18.948 19.7205 19.9029 20.4717 20.8057C24.1923 25.2704 29.0365 27.7185 34.1188 27.7185C39.2011 27.7185 44.0453 25.2629 47.7659 20.8057C48.5171 19.9029 49.2034 18.948 49.8197 17.9483H18.4179Z" fill="#4E3D33"/>
</g>
<defs>
<clipPath id="clip0_12_3269">
<rect width="232.678" height="35.8962" fill="white" transform="translate(0.41748 9.15527e-05)"/>
</clipPath>
</defs>
</svg>
