<svg width="31" height="32" viewBox="0 0 31 32" fill="none" xmlns="http://www.w3.org/2000/svg">
<path d="M15.5457 23.8964L10.2327 27.097C9.99795 27.2464 9.75257 27.3104 9.49652 27.2891C9.24048 27.2677 9.01643 27.1824 8.8244 27.033C8.63236 26.8837 8.483 26.6972 8.37631 26.4736C8.26963 26.2491 8.24829 25.9982 8.3123 25.7208L9.72057 19.6716L5.01568 15.6069C4.8023 15.4148 4.66916 15.1959 4.61624 14.9501C4.56247 14.7051 4.57826 14.4653 4.66361 14.2306C4.74896 13.9959 4.87698 13.8039 5.04768 13.6545C5.21838 13.5051 5.45309 13.4091 5.75182 13.3664L11.961 12.8223L14.3614 7.12526C14.4681 6.86921 14.6337 6.67718 14.8582 6.54915C15.0818 6.42113 15.311 6.35712 15.5457 6.35712C15.7804 6.35712 16.01 6.42113 16.2344 6.54915C16.4581 6.67718 16.6232 6.86921 16.7299 7.12526L19.1303 12.8223L25.3395 13.3664C25.6382 13.4091 25.873 13.5051 26.0437 13.6545C26.2143 13.8039 26.3424 13.9959 26.4277 14.2306C26.5131 14.4653 26.5293 14.7051 26.4764 14.9501C26.4226 15.1959 26.289 15.4148 26.0757 15.6069L21.3708 19.6716L22.779 25.7208C22.843 25.9982 22.8217 26.2491 22.715 26.4736C22.6083 26.6972 22.459 26.8837 22.2669 27.033C22.0749 27.1824 21.8509 27.2677 21.5948 27.2891C21.3388 27.3104 21.0934 27.2464 20.8587 27.097L15.5457 23.8964Z" fill="url(#paint0_linear_12_3558)"/>
<defs>
<linearGradient id="paint0_linear_12_3558" x1="20.6535" y1="1.49042" x2="-0.565752" y2="9.25869" gradientUnits="userSpaceOnUse">
<stop stop-color="#E0A872"/>
<stop offset="0.444501" stop-color="#F8E4BE"/>
<stop offset="0.549712" stop-color="#FFF3E0"/>
<stop offset="1" stop-color="#E0A872"/>
</linearGradient>
</defs>
</svg>
