<svg width="31" height="32" viewBox="0 0 31 32" fill="none" xmlns="http://www.w3.org/2000/svg">
<path d="M15.4544 23.8964L10.1414 27.097C9.90672 27.2464 9.66134 27.3104 9.40529 27.2891C9.14924 27.2677 8.9252 27.1824 8.73316 27.033C8.54113 26.8837 8.39177 26.6972 8.28508 26.4736C8.17839 26.2491 8.15706 25.9982 8.22107 25.7208L9.62933 19.6716L4.92444 15.6069C4.71107 15.4148 4.57793 15.1959 4.52501 14.9501C4.47124 14.7051 4.48703 14.4653 4.57238 14.2306C4.65773 13.9959 4.78575 13.8039 4.95645 13.6545C5.12715 13.5051 5.36186 13.4091 5.66058 13.3664L11.8698 12.8223L14.2702 7.12526C14.3769 6.86921 14.5425 6.67718 14.7669 6.54915C14.9906 6.42113 15.2197 6.35712 15.4544 6.35712C15.6891 6.35712 15.9187 6.42113 16.1432 6.54915C16.3668 6.67718 16.532 6.86921 16.6387 7.12526L19.0391 12.8223L25.2483 13.3664C25.547 13.4091 25.7817 13.5051 25.9524 13.6545C26.1231 13.8039 26.2511 13.9959 26.3365 14.2306C26.4218 14.4653 26.4381 14.7051 26.3851 14.9501C26.3314 15.1959 26.1978 15.4148 25.9844 15.6069L21.2795 19.6716L22.6878 25.7208C22.7518 25.9982 22.7305 26.2491 22.6238 26.4736C22.5171 26.6972 22.3677 26.8837 22.1757 27.033C21.9837 27.1824 21.7596 27.2677 21.5036 27.2891C21.2475 27.3104 21.0021 27.2464 20.7674 27.097L15.4544 23.8964Z" fill="url(#paint0_linear_12_3556)"/>
<defs>
<linearGradient id="paint0_linear_12_3556" x1="20.5623" y1="1.49042" x2="-0.656984" y2="9.25869" gradientUnits="userSpaceOnUse">
<stop stop-color="#E0A872"/>
<stop offset="0.444501" stop-color="#F8E4BE"/>
<stop offset="0.549712" stop-color="#FFF3E0"/>
<stop offset="1" stop-color="#E0A872"/>
</linearGradient>
</defs>
</svg>
