<svg width="31" height="32" viewBox="0 0 31 32" fill="none" xmlns="http://www.w3.org/2000/svg">
<path d="M15.6372 10.902V20.8879L19.6699 23.3523L18.6137 18.7435L22.1664 15.6709L17.4935 15.2548L15.6372 10.902ZM15.6372 23.8964L10.3242 27.097C10.0894 27.2464 9.84406 27.3104 9.58802 27.2891C9.33197 27.2677 9.10792 27.1824 8.91589 27.033C8.72385 26.8837 8.57449 26.6972 8.4678 26.4736C8.36112 26.2491 8.33978 25.9982 8.40379 25.7208L9.81206 19.6716L5.10717 15.6069C4.89379 15.4148 4.76065 15.1959 4.70773 14.9501C4.65396 14.7051 4.66975 14.4653 4.7551 14.2306C4.84045 13.9959 4.96848 13.8039 5.13917 13.6545C5.30987 13.5051 5.54458 13.4091 5.84331 13.3664L12.0525 12.8223L14.4529 7.12526C14.5596 6.86921 14.7252 6.67718 14.9497 6.54915C15.1733 6.42113 15.4024 6.35712 15.6372 6.35712C15.8719 6.35712 16.1015 6.42113 16.3259 6.54915C16.5495 6.67718 16.7147 6.86921 16.8214 7.12526L19.2218 12.8223L25.431 13.3664C25.7297 13.4091 25.9644 13.5051 26.1351 13.6545C26.3058 13.8039 26.4339 13.9959 26.5192 14.2306C26.6046 14.4653 26.6208 14.7051 26.5679 14.9501C26.5141 15.1959 26.3805 15.4148 26.1671 15.6069L21.4623 19.6716L22.8705 25.7208C22.9345 25.9982 22.9132 26.2491 22.8065 26.4736C22.6998 26.6972 22.5505 26.8837 22.3584 27.033C22.1664 27.1824 21.9424 27.2677 21.6863 27.2891C21.4303 27.3104 21.1849 27.2464 20.9502 27.097L15.6372 23.8964Z" fill="url(#paint0_linear_12_3560)"/>
<defs>
<linearGradient id="paint0_linear_12_3560" x1="20.745" y1="1.49042" x2="-0.47426" y2="9.25869" gradientUnits="userSpaceOnUse">
<stop stop-color="#E0A872"/>
<stop offset="0.444501" stop-color="#F8E4BE"/>
<stop offset="0.549712" stop-color="#FFF3E0"/>
<stop offset="1" stop-color="#E0A872"/>
</linearGradient>
</defs>
</svg>
