<svg width="24" height="24" viewBox="0 0 24 24" fill="none" xmlns="http://www.w3.org/2000/svg">
<path d="M12 12.001C12.55 12.001 13.021 11.805 13.413 11.413C13.8043 11.0216 14 10.551 14 10.001C14 9.45098 13.8043 8.97998 13.413 8.58798C13.021 8.19664 12.55 8.00098 12 8.00098C11.45 8.00098 10.9793 8.19664 10.588 8.58798C10.196 8.97998 10 9.45098 10 10.001C10 10.551 10.196 11.0216 10.588 11.413C10.9793 11.805 11.45 12.001 12 12.001ZM12 21.626C11.8667 21.626 11.7333 21.601 11.6 21.551C11.4667 21.501 11.35 21.4343 11.25 21.351C8.81667 19.201 7 17.2053 5.8 15.364C4.6 13.522 4 11.801 4 10.201C4 7.70098 4.80433 5.70931 6.413 4.22598C8.021 2.74264 9.88333 2.00098 12 2.00098C14.1167 2.00098 15.979 2.74264 17.587 4.22598C19.1957 5.70931 20 7.70098 20 10.201C20 11.801 19.4 13.522 18.2 15.364C17 17.2053 15.1833 19.201 12.75 21.351C12.65 21.4343 12.5333 21.501 12.4 21.551C12.2667 21.601 12.1333 21.626 12 21.626Z" fill="#FFF3E0"/>
</svg>
