<svg width="31" height="32" viewBox="0 0 31 32" fill="none" xmlns="http://www.w3.org/2000/svg">
<path d="M15.3629 23.8964L10.0499 27.097C9.81523 27.2464 9.56985 27.3104 9.3138 27.2891C9.05775 27.2677 8.83371 27.1824 8.64167 27.033C8.44964 26.8837 8.30027 26.6972 8.19359 26.4736C8.0869 26.2491 8.06556 25.9982 8.12958 25.7208L9.53784 19.6716L4.83295 15.6069C4.61958 15.4148 4.48643 15.1959 4.43352 14.9501C4.37975 14.7051 4.39554 14.4653 4.48089 14.2306C4.56624 13.9959 4.69426 13.8039 4.86496 13.6545C5.03566 13.5051 5.27037 13.4091 5.56909 13.3664L11.7783 12.8223L14.1787 7.12526C14.2854 6.86921 14.451 6.67718 14.6755 6.54915C14.8991 6.42113 15.1282 6.35712 15.3629 6.35712C15.5977 6.35712 15.8272 6.42113 16.0517 6.54915C16.2753 6.67718 16.4405 6.86921 16.5472 7.12526L18.9476 12.8223L25.1568 13.3664C25.4555 13.4091 25.6902 13.5051 25.8609 13.6545C26.0316 13.8039 26.1596 13.9959 26.245 14.2306C26.3303 14.4653 26.3466 14.7051 26.2936 14.9501C26.2399 15.1959 26.1063 15.4148 25.8929 15.6069L21.188 19.6716L22.5963 25.7208C22.6603 25.9982 22.639 26.2491 22.5323 26.4736C22.4256 26.6972 22.2762 26.8837 22.0842 27.033C21.8922 27.1824 21.6681 27.2677 21.4121 27.2891C21.156 27.3104 20.9107 27.2464 20.6759 27.097L15.3629 23.8964Z" fill="url(#paint0_linear_12_3554)"/>
<defs>
<linearGradient id="paint0_linear_12_3554" x1="20.4708" y1="1.49042" x2="-0.748476" y2="9.25869" gradientUnits="userSpaceOnUse">
<stop stop-color="#E0A872"/>
<stop offset="0.444501" stop-color="#F8E4BE"/>
<stop offset="0.549712" stop-color="#FFF3E0"/>
<stop offset="1" stop-color="#E0A872"/>
</linearGradient>
</defs>
</svg>
