<svg width="42" height="35" viewBox="0 0 42 35" fill="none" xmlns="http://www.w3.org/2000/svg">
<g clip-path="url(#clip0_12_3573)">
<path d="M24.3687 14.9381L24.3687 -1.46829e-06L41.1641 0L41.1641 11.7957C41.1641 18.1734 40.231 22.8019 38.3804 25.6502C35.9389 29.4737 32.0821 32.3529 26.8103 34.3034L22.9847 29.3034C26.1727 28.2043 28.5209 26.5789 30.0294 24.4118C31.5379 22.2446 32.3776 19.0867 32.5487 14.9381L24.3687 14.9381Z" fill="#FFF3E0"/>
<path d="M1.39962 14.9382L1.39962 0.000143492L18.1794 0.000144958L18.1794 11.7958C18.1794 18.1735 17.2463 22.802 15.3957 25.6658C12.9542 29.4738 9.09748 32.3531 3.82561 34.319L1.18812e-05 29.319C3.18801 28.22 5.53625 26.5946 7.04471 24.4274C8.55318 22.2602 9.39295 19.1023 9.56401 14.9537L1.38407 14.9537L1.39962 14.9382Z" fill="#FFF3E0"/>
</g>
<defs>
<clipPath id="clip0_12_3573">
<rect width="41.1641" height="34.3034" fill="white" transform="translate(41.1641 34.3034) rotate(-180)"/>
</clipPath>
</defs>
</svg>
