<svg width="27" height="27" viewBox="0 0 27 27" fill="none" xmlns="http://www.w3.org/2000/svg">
<path d="M26.838 2.96085V23.3256C26.838 24.8587 25.5941 26.1026 24.061 26.1026H9.85196C10.4189 25.1538 11.1479 23.7884 11.4372 22.6718C11.6107 22.0065 12.3223 19.2931 12.3223 19.2931C12.7852 20.1783 14.139 20.9246 15.5795 20.9246C19.8666 20.9246 22.9502 16.9847 22.9502 12.0903C22.9502 7.39828 19.1202 3.88652 14.191 3.88652C8.05848 3.88652 4.80706 7.99996 4.80706 12.4837C4.80706 14.5664 5.91787 17.1583 7.68821 17.9856C7.96013 18.1129 8.09898 18.055 8.16262 17.7947C8.2089 17.598 8.45189 16.6318 8.55603 16.1864C8.59074 16.0417 8.57338 15.9202 8.45767 15.7814C7.87334 15.0698 7.39894 13.7623 7.39894 12.5415C7.39894 9.40582 9.77097 6.37425 13.815 6.37425C17.3036 6.37425 19.7508 8.75207 19.7508 12.1539C19.7508 15.9954 17.8127 18.6567 15.2845 18.6567C13.8902 18.6567 12.8488 17.5054 13.1786 16.088C13.5778 14.3987 14.353 12.5762 14.353 11.3555C14.353 8.28923 9.98503 8.71157 9.98503 12.8019C9.98503 14.0573 10.4074 14.9136 10.4074 14.9136C8.59074 22.5966 8.31882 22.695 8.69488 26.0563L8.82216 26.1026H3.69626C2.16312 26.1026 0.91925 24.8587 0.91925 23.3256V2.96085C0.91925 1.42771 2.16312 0.183838 3.69626 0.183838H24.061C25.5941 0.183838 26.838 1.42771 26.838 2.96085Z" fill="#FFF3E0"/>
</svg>
