<svg width="26" height="27" viewBox="0 0 26 27" fill="none" xmlns="http://www.w3.org/2000/svg">
<path fill-rule="evenodd" clip-rule="evenodd" d="M3.70275 0.183594C2.72072 0.183594 1.77891 0.573704 1.08451 1.2681C0.39011 1.9625 0 2.90431 0 3.88634V22.4001C0 23.3821 0.39011 24.3239 1.08451 25.0183C1.77891 25.7127 2.72072 26.1028 3.70275 26.1028H22.2165C23.1985 26.1028 24.1403 25.7127 24.8347 25.0183C25.5291 24.3239 25.9192 23.3821 25.9192 22.4001V3.88634C25.9192 2.90431 25.5291 1.9625 24.8347 1.2681C24.1403 0.573704 23.1985 0.183594 22.2165 0.183594H3.70275ZM5.74296 8.13895C6.32973 8.13895 6.89246 7.90586 7.30736 7.49095C7.72226 7.07605 7.95536 6.51332 7.95536 5.92656C7.95536 5.33979 7.72226 4.77706 7.30736 4.36216C6.89246 3.94726 6.32973 3.71416 5.74296 3.71416C5.1562 3.71416 4.59347 3.94726 4.17857 4.36216C3.76366 4.77706 3.53057 5.33979 3.53057 5.92656C3.53057 6.51332 3.76366 7.07605 4.17857 7.49095C4.59347 7.90586 5.1562 8.13895 5.74296 8.13895ZM7.59434 22.0539V9.87369H3.89159V22.0539H7.59434ZM10.053 9.87369H13.7557V11.5047C14.3019 10.6494 15.5016 9.49786 17.7325 9.49786C20.3947 9.49786 21.8407 11.2622 21.8407 14.6188C21.8407 14.7798 21.8555 15.5148 21.8555 15.5148V22.052H18.1527V15.5167C18.1527 14.6188 17.9639 12.8544 15.9681 12.8544C13.9705 12.8544 13.802 15.0723 13.7557 16.5238V22.052H10.053V9.87369Z" fill="#FFF3E0"/>
</svg>
