<svg width="28" height="27" viewBox="0 0 28 27" fill="none" xmlns="http://www.w3.org/2000/svg">
<path d="M13.9802 0.000976562C17.5509 0.000976562 17.9964 0.0141187 19.3974 0.0798297C20.7971 0.145541 21.7499 0.365016 22.5883 0.690943C23.4557 1.02475 24.1864 1.47685 24.9171 2.20624C25.5854 2.86321 26.1025 3.65791 26.4324 4.53504C26.757 5.3722 26.9778 6.32632 27.0435 7.72597C27.1053 9.12692 27.1224 9.57245 27.1224 13.1432C27.1224 16.7139 27.1093 17.1594 27.0435 18.5604C26.9778 19.96 26.757 20.9129 26.4324 21.7513C26.1035 22.6289 25.5862 23.4238 24.9171 24.0801C24.26 24.7482 23.4653 25.2652 22.5883 25.5954C21.7512 25.92 20.7971 26.1408 19.3974 26.2065C17.9964 26.2683 17.5509 26.2854 13.9802 26.2854C10.4095 26.2854 9.96393 26.2722 8.56297 26.2065C7.16333 26.1408 6.21052 25.92 5.37204 25.5954C4.49457 25.2662 3.69973 24.749 3.04324 24.0801C2.37484 23.4233 1.85773 22.6285 1.52795 21.7513C1.20202 20.9142 0.982546 19.96 0.916835 18.5604C0.855067 17.1594 0.837982 16.7139 0.837982 13.1432C0.837982 9.57245 0.851124 9.12692 0.916835 7.72597C0.982546 6.32501 1.20202 5.37351 1.52795 4.53504C1.85681 3.65737 2.37405 2.86246 3.04324 2.20624C3.69992 1.5376 4.49471 1.02046 5.37204 0.690943C6.21052 0.365016 7.16201 0.145541 8.56297 0.0798297C9.96393 0.0180614 10.4095 0.000976562 13.9802 0.000976562ZM13.9802 6.57208C12.2374 6.57208 10.566 7.26439 9.33372 8.49671C8.1014 9.72903 7.40909 11.4004 7.40909 13.1432C7.40909 14.8859 8.1014 16.5573 9.33372 17.7897C10.566 19.022 12.2374 19.7143 13.9802 19.7143C15.723 19.7143 17.3943 19.022 18.6267 17.7897C19.859 16.5573 20.5513 14.8859 20.5513 13.1432C20.5513 11.4004 19.859 9.72903 18.6267 8.49671C17.3943 7.26439 15.723 6.57208 13.9802 6.57208ZM22.5226 6.24352C22.5226 5.80783 22.3495 5.38999 22.0415 5.08191C21.7334 4.77383 21.3155 4.60075 20.8798 4.60075C20.4442 4.60075 20.0263 4.77383 19.7182 5.08191C19.4101 5.38999 19.2371 5.80783 19.2371 6.24352C19.2371 6.67922 19.4101 7.09706 19.7182 7.40514C20.0263 7.71322 20.4442 7.8863 20.8798 7.8863C21.3155 7.8863 21.7334 7.71322 22.0415 7.40514C22.3495 7.09706 22.5226 6.67922 22.5226 6.24352ZM13.9802 9.20052C15.0258 9.20052 16.0287 9.61591 16.7681 10.3553C17.5075 11.0947 17.9229 12.0975 17.9229 13.1432C17.9229 14.1888 17.5075 15.1917 16.7681 15.9311C16.0287 16.6705 15.0258 17.0858 13.9802 17.0858C12.9345 17.0858 11.9317 16.6705 11.1923 15.9311C10.4529 15.1917 10.0375 14.1888 10.0375 13.1432C10.0375 12.0975 10.4529 11.0947 11.1923 10.3553C11.9317 9.61591 12.9345 9.20052 13.9802 9.20052Z" fill="#FFF3E0"/>
</svg>
